<svg xmlns="http://www.w3.org/2000/svg" version="1.1" xmlns:xlink="http://www.w3.org/1999/xlink" xmlns:svgjs="http://svgjs.dev/svgjs" width="1500" height="189" viewBox="0 0 1500 189"><g transform="matrix(1,0,0,1,-0.9090909090909918,0.5318246426140547)"><svg viewBox="0 0 396 50" data-background-color="#ffffff" preserveAspectRatio="xMidYMid meet" height="189" width="1500" xmlns="http://www.w3.org/2000/svg" xmlns:xlink="http://www.w3.org/1999/xlink"><g id="tight-bounds" transform="matrix(1,0,0,1,0.2400000000000091,-0.14069434989789897)"><svg viewBox="0 0 395.52 50.28138869979578" height="50.28138869979578" width="395.52"><g><svg viewBox="0 0 395.52 50.28138869979578" height="50.28138869979578" width="395.52"><g><svg viewBox="0 0 395.52 50.28138869979578" height="50.28138869979578" width="395.52"><g id="textblocktransform"><svg viewBox="0 0 395.52 50.28138869979578" height="50.28138869979578" width="395.52" id="textblock"><g><svg viewBox="0 0 395.52 50.28138869979578" height="50.28138869979578" width="395.52"><g transform="matrix(1,0,0,1,0,0)"><svg width="395.52" viewBox="5.7 -37.1 293.77000000000004 37.35" height="50.28138869979578" data-palette-color="#336a86"><path d="M18.8-35Q25.5-35 29.3-31.8 33.1-28.6 33.1-23L33.1-23Q33.1-17.4 29.3-14.23 25.5-11.05 18.8-11.05L18.8-11.05 9.4-11.05 9.4 0 5.7 0 5.7-35 18.8-35ZM18.7-14.3Q23.9-14.3 26.65-16.57 29.4-18.85 29.4-23L29.4-23Q29.4-27.25 26.65-29.53 23.9-31.8 18.7-31.8L18.7-31.8 9.4-31.8 9.4-14.3 18.7-14.3ZM51.45-2.9Q53.9-2.9 55.97-3.78 58.05-4.65 59.5-6.35L59.5-6.35 61.5-4.05Q59.75-1.95 57.15-0.85 54.55 0.25 51.4 0.25L51.4 0.25Q47.35 0.25 44.2-1.48 41.05-3.2 39.3-6.25 37.55-9.3 37.55-13.15L37.55-13.15Q37.55-17 39.22-20.05 40.9-23.1 43.85-24.8 46.8-26.5 50.55-26.5L50.55-26.5Q54.05-26.5 56.87-24.9 59.7-23.3 61.37-20.45 63.05-17.6 63.15-13.95L63.15-13.95 41.55-9.75Q42.55-6.55 45.17-4.73 47.8-2.9 51.45-2.9L51.45-2.9ZM50.55-23.45Q47.8-23.45 45.62-22.18 43.45-20.9 42.22-18.63 41-16.35 41-13.4L41-13.4Q41-12.65 41.05-12.3L41.05-12.3 59.6-15.9Q59-19.2 56.55-21.33 54.1-23.45 50.55-23.45L50.55-23.45ZM82.1-4.15L83.35-1.6Q82.35-0.7 80.9-0.23 79.45 0.25 77.85 0.25L77.85 0.25Q74.15 0.25 72.15-1.75 70.15-3.75 70.15-7.4L70.15-7.4 70.15-32.05 73.7-32.05 73.7-26.3 81.65-26.3 81.65-23.3 73.7-23.3 73.7-7.6Q73.7-5.25 74.85-4.03 76-2.8 78.2-2.8L78.2-2.8Q80.6-2.8 82.1-4.15L82.1-4.15ZM93.19-21.15Q94.44-23.8 96.92-25.15 99.39-26.5 103.04-26.5L103.04-26.5 103.04-23.05 102.19-23.1Q98.04-23.1 95.69-20.55 93.34-18 93.34-13.4L93.34-13.4 93.34 0 89.79 0 89.79-26.3 93.19-26.3 93.19-21.15ZM129.99-26.3L133.54-26.3 133.54 0 130.14 0 130.14-4.8Q128.74-2.4 126.29-1.07 123.84 0.25 120.69 0.25L120.69 0.25Q115.54 0.25 112.57-2.63 109.59-5.5 109.59-11.05L109.59-11.05 109.59-26.3 113.14-26.3 113.14-11.4Q113.14-7.25 115.19-5.1 117.24-2.95 121.04-2.95L121.04-2.95Q125.19-2.95 127.59-5.48 129.99-8 129.99-12.5L129.99-12.5 129.99-26.3ZM171.69-31.8L164.59-31.8 164.59-3.2 171.69-3.2 171.69 0 153.84 0 153.84-3.2 160.94-3.2 160.94-31.8 153.84-31.8 153.84-35 171.69-35 171.69-31.8ZM198.98-26.3L202.53-26.3 202.53 0 199.13 0 199.13-4.8Q197.73-2.4 195.28-1.07 192.83 0.25 189.68 0.25L189.68 0.25Q184.53 0.25 181.56-2.63 178.58-5.5 178.58-11.05L178.58-11.05 178.58-26.3 182.13-26.3 182.13-11.4Q182.13-7.25 184.18-5.1 186.23-2.95 190.03-2.95L190.03-2.95Q194.18-2.95 196.58-5.48 198.98-8 198.98-12.5L198.98-12.5 198.98-26.3ZM219.88 0.25Q216.33 0.25 214.41-1.75 212.48-3.75 212.48-7.3L212.48-7.3 212.48-37.1 216.03-37.1 216.03-7.6Q216.03-5.25 217.13-4.03 218.23-2.8 220.43-2.8L220.43-2.8Q221.83-2.8 222.83-3.25L222.83-3.25 223.08-0.3Q221.53 0.25 219.88 0.25L219.88 0.25ZM227.93 0L227.93-26.3 231.48-26.3 231.48 0 227.93 0ZM229.73-32.05Q228.63-32.05 227.88-32.8 227.13-33.55 227.13-34.6L227.13-34.6Q227.13-35.6 227.88-36.35 228.63-37.1 229.73-37.1L229.73-37.1Q230.83-37.1 231.58-36.38 232.33-35.65 232.33-34.65L232.33-34.65Q232.33-33.55 231.58-32.8 230.83-32.05 229.73-32.05L229.73-32.05ZM261.82-26.3L265.38-26.3 265.38 0 261.98 0 261.98-5.2Q260.38-2.55 257.75-1.15 255.13 0.25 251.83 0.25L251.83 0.25Q248.13 0.25 245.13-1.45 242.13-3.15 240.43-6.2 238.73-9.25 238.73-13.15L238.73-13.15Q238.73-17.05 240.43-20.1 242.13-23.15 245.13-24.83 248.13-26.5 251.83-26.5L251.83-26.5Q255.03-26.5 257.6-25.18 260.18-23.85 261.82-21.3L261.82-21.3 261.82-26.3ZM252.13-2.9Q254.88-2.9 257.1-4.17 259.32-5.45 260.6-7.8 261.88-10.15 261.88-13.15L261.88-13.15Q261.88-16.15 260.6-18.5 259.32-20.85 257.1-22.13 254.88-23.4 252.13-23.4L252.13-23.4Q249.33-23.4 247.1-22.13 244.88-20.85 243.6-18.5 242.33-16.15 242.33-13.15L242.33-13.15Q242.33-10.15 243.6-7.8 244.88-5.45 247.1-4.17 249.33-2.9 252.13-2.9L252.13-2.9ZM288.67-26.5Q293.62-26.5 296.55-23.63 299.47-20.75 299.47-15.25L299.47-15.25 299.47 0 295.92 0 295.92-14.9Q295.92-19 293.87-21.15 291.82-23.3 288.02-23.3L288.02-23.3Q283.77-23.3 281.3-20.78 278.82-18.25 278.82-13.8L278.82-13.8 278.82 0 275.27 0 275.27-26.3 278.67-26.3 278.67-21.45Q280.12-23.85 282.7-25.18 285.27-26.5 288.67-26.5L288.67-26.5Z" opacity="1" transform="matrix(1,0,0,1,0,0)" fill="#336a86" class="wordmark-text-0" data-fill-palette-color="primary" id="text-0"></path></svg></g></svg></g></svg></g></svg></g></svg></g><defs></defs></svg><rect width="395.52" height="50.28138869979578" fill="none" stroke="none" visibility="hidden"></rect></g></svg></g></svg>